<mxfile host="www.draw.io" modified="2019-10-28T17:21:17.856Z" agent="Mozilla/5.0 (Macintosh; Intel Mac OS X 10_15) AppleWebKit/605.1.15 (KHTML, like Gecko) Version/13.0.2 Safari/605.1.15" etag="vn3ntwlDVgJbcxoTe22J" version="12.1.8" type="github" pages="1">
  <diagram id="k8weRDqQpB2DFj6acZwD" name="Page-1">
    <mxGraphModel dx="846" dy="577" grid="1" gridSize="10" guides="1" tooltips="1" connect="1" arrows="1" fold="1" page="1" pageScale="1" pageWidth="850" pageHeight="1100" math="0" shadow="0">
      <root>
        <mxCell id="0"/>
        <mxCell id="1" parent="0"/>
        <mxCell id="4Rp5gVCnoUCPFiIpjyle-1" value="" style="ellipse;whiteSpace=wrap;html=1;dashed=1;strokeWidth=4;fillColor=#f5f5f5;strokeColor=#666666;fontColor=#333333;" parent="1" vertex="1">
          <mxGeometry x="240" y="300" width="360" height="320" as="geometry"/>
        </mxCell>
        <mxCell id="4Rp5gVCnoUCPFiIpjyle-2" value="REST" style="endArrow=classic;startArrow=classic;html=1;" parent="1" source="4Rp5gVCnoUCPFiIpjyle-32" edge="1">
          <mxGeometry width="50" height="50" relative="1" as="geometry">
            <mxPoint x="271" y="670" as="sourcePoint"/>
            <mxPoint x="421" y="220" as="targetPoint"/>
          </mxGeometry>
        </mxCell>
        <mxCell id="4Rp5gVCnoUCPFiIpjyle-3" value="D-Bus" style="endArrow=classic;startArrow=classic;html=1;entryX=0;entryY=0.5;entryDx=0;entryDy=0;" parent="1" source="4Rp5gVCnoUCPFiIpjyle-28" target="4Rp5gVCnoUCPFiIpjyle-32" edge="1">
          <mxGeometry x="-0.2914" y="4" width="50" height="50" relative="1" as="geometry">
            <mxPoint x="358" y="690" as="sourcePoint"/>
            <mxPoint x="321" y="620" as="targetPoint"/>
            <mxPoint as="offset"/>
          </mxGeometry>
        </mxCell>
        <mxCell id="4Rp5gVCnoUCPFiIpjyle-4" value="REST" style="endArrow=classic;startArrow=classic;html=1;exitX=0.679;exitY=0.026;exitDx=0;exitDy=0;exitPerimeter=0;" parent="1" source="4Rp5gVCnoUCPFiIpjyle-26" target="4Rp5gVCnoUCPFiIpjyle-6" edge="1">
          <mxGeometry width="50" height="50" relative="1" as="geometry">
            <mxPoint x="489" y="690" as="sourcePoint"/>
            <mxPoint x="321" y="720" as="targetPoint"/>
          </mxGeometry>
        </mxCell>
        <mxCell id="4Rp5gVCnoUCPFiIpjyle-5" value="gRPC" style="endArrow=classic;startArrow=classic;html=1;exitX=0.371;exitY=0.026;exitDx=0;exitDy=0;exitPerimeter=0;entryX=0.386;entryY=0.993;entryDx=0;entryDy=0;entryPerimeter=0;" parent="1" source="4Rp5gVCnoUCPFiIpjyle-26" target="4Rp5gVCnoUCPFiIpjyle-6" edge="1">
          <mxGeometry width="50" height="50" relative="1" as="geometry">
            <mxPoint x="420.5" y="694" as="sourcePoint"/>
            <mxPoint x="421.20000000000005" y="589.9" as="targetPoint"/>
          </mxGeometry>
        </mxCell>
        <mxCell id="4Rp5gVCnoUCPFiIpjyle-6" value="switch &lt;br&gt;manager" style="ellipse;whiteSpace=wrap;html=1;aspect=fixed;" parent="1" vertex="1">
          <mxGeometry x="380.5" y="500" width="90" height="90" as="geometry"/>
        </mxCell>
        <mxCell id="4Rp5gVCnoUCPFiIpjyle-7" value="Command Parser &amp;amp; &lt;br&gt;End-point connection&lt;br&gt;manager" style="ellipse;whiteSpace=wrap;html=1;aspect=fixed;" parent="1" vertex="1">
          <mxGeometry x="460" y="390" width="90" height="90" as="geometry"/>
        </mxCell>
        <mxCell id="4Rp5gVCnoUCPFiIpjyle-8" value="name &amp;amp; zone&lt;br&gt;service" style="ellipse;whiteSpace=wrap;html=1;aspect=fixed;" parent="1" vertex="1">
          <mxGeometry x="290" y="390" width="80" height="80" as="geometry"/>
        </mxCell>
        <mxCell id="4Rp5gVCnoUCPFiIpjyle-9" value="StFS DB" style="shape=cylinder;whiteSpace=wrap;html=1;boundedLbl=1;backgroundOutline=1;" parent="1" vertex="1">
          <mxGeometry x="290" y="475" width="50" height="50" as="geometry"/>
        </mxCell>
        <mxCell id="4Rp5gVCnoUCPFiIpjyle-12" value="" style="endArrow=classic;startArrow=classic;html=1;exitX=0.095;exitY=0.772;exitDx=0;exitDy=0;exitPerimeter=0;entryX=0.15;entryY=0.05;entryDx=0;entryDy=0;entryPerimeter=0;" parent="1" source="4Rp5gVCnoUCPFiIpjyle-8" target="4Rp5gVCnoUCPFiIpjyle-9" edge="1">
          <mxGeometry width="50" height="50" relative="1" as="geometry">
            <mxPoint x="240" y="660" as="sourcePoint"/>
            <mxPoint x="290" y="610" as="targetPoint"/>
            <Array as="points">
              <mxPoint x="280" y="470"/>
            </Array>
          </mxGeometry>
        </mxCell>
        <mxCell id="4Rp5gVCnoUCPFiIpjyle-13" value="NVMe-oF" style="endArrow=classic;startArrow=classic;html=1;exitX=0.982;exitY=0.624;exitDx=0;exitDy=0;entryX=0;entryY=0;entryDx=0;entryDy=30;entryPerimeter=0;exitPerimeter=0;" parent="1" source="4Rp5gVCnoUCPFiIpjyle-7" target="4Rp5gVCnoUCPFiIpjyle-14" edge="1">
          <mxGeometry width="50" height="50" relative="1" as="geometry">
            <mxPoint x="271" y="770" as="sourcePoint"/>
            <mxPoint x="671" y="450" as="targetPoint"/>
          </mxGeometry>
        </mxCell>
        <mxCell id="4Rp5gVCnoUCPFiIpjyle-14" value="NVMe Host" style="shape=cube;whiteSpace=wrap;html=1;boundedLbl=1;backgroundOutline=1;darkOpacity=0.05;darkOpacity2=0.1;" parent="1" vertex="1">
          <mxGeometry x="681" y="515" width="120" height="80" as="geometry"/>
        </mxCell>
        <mxCell id="4Rp5gVCnoUCPFiIpjyle-15" value="NVM sub-system" style="shape=cylinder;whiteSpace=wrap;html=1;boundedLbl=1;backgroundOutline=1;" parent="1" vertex="1">
          <mxGeometry x="681" y="335" width="100" height="70" as="geometry"/>
        </mxCell>
        <mxCell id="4Rp5gVCnoUCPFiIpjyle-17" value="" style="endArrow=classic;startArrow=classic;html=1;entryX=0;entryY=0.5;entryDx=0;entryDy=0;" parent="1" source="4Rp5gVCnoUCPFiIpjyle-7" target="4Rp5gVCnoUCPFiIpjyle-15" edge="1">
          <mxGeometry width="50" height="50" relative="1" as="geometry">
            <mxPoint x="271" y="770" as="sourcePoint"/>
            <mxPoint x="321" y="720" as="targetPoint"/>
          </mxGeometry>
        </mxCell>
        <mxCell id="4Rp5gVCnoUCPFiIpjyle-18" value="TCP/IP Connection &lt;br&gt;(carry NVMe-oF Traffic)" style="endArrow=classic;startArrow=classic;html=1;entryX=0.5;entryY=1;entryDx=0;entryDy=0;exitX=0;exitY=0;exitDx=50;exitDy=0;exitPerimeter=0;" parent="1" source="4Rp5gVCnoUCPFiIpjyle-14" target="4Rp5gVCnoUCPFiIpjyle-15" edge="1">
          <mxGeometry width="50" height="50" relative="1" as="geometry">
            <mxPoint x="271" y="770" as="sourcePoint"/>
            <mxPoint x="321" y="720" as="targetPoint"/>
          </mxGeometry>
        </mxCell>
        <mxCell id="4Rp5gVCnoUCPFiIpjyle-19" value="contains: config, name data, zone data" style="whiteSpace=wrap;html=1;rounded=1;arcSize=50;align=center;verticalAlign=middle;container=1;recursiveResize=0;strokeWidth=1;autosize=1;spacing=4;treeFolding=1;treeMoving=1;strokeColor=#CC0000;fillColor=#fff2cc;" parent="1" vertex="1">
          <mxGeometry x="135" y="595" width="151" height="58" as="geometry"/>
        </mxCell>
        <mxCell id="4Rp5gVCnoUCPFiIpjyle-20" value="" style="edgeStyle=entityRelationEdgeStyle;startArrow=none;endArrow=none;segment=10;curved=1;strokeColor=#CC0000;" parent="1" source="4Rp5gVCnoUCPFiIpjyle-9" target="4Rp5gVCnoUCPFiIpjyle-19" edge="1">
          <mxGeometry relative="1" as="geometry">
            <mxPoint x="151" y="650" as="sourcePoint"/>
          </mxGeometry>
        </mxCell>
        <mxCell id="4Rp5gVCnoUCPFiIpjyle-23" value="The process needs to consider scaling needs" style="whiteSpace=wrap;html=1;rounded=1;arcSize=50;align=center;verticalAlign=middle;container=1;recursiveResize=0;strokeWidth=1;autosize=1;spacing=4;treeFolding=1;treeMoving=1;fillColor=#fff2cc;strokeColor=#CC0000;" parent="1" vertex="1">
          <mxGeometry x="537" y="238" width="280" height="30" as="geometry"/>
        </mxCell>
        <mxCell id="4Rp5gVCnoUCPFiIpjyle-24" value="" style="edgeStyle=entityRelationEdgeStyle;startArrow=none;endArrow=none;segment=10;curved=1;strokeColor=#CC0000;exitX=1;exitY=0;exitDx=0;exitDy=0;entryX=0.25;entryY=1;entryDx=0;entryDy=0;" parent="1" source="4Rp5gVCnoUCPFiIpjyle-7" target="4Rp5gVCnoUCPFiIpjyle-23" edge="1">
          <mxGeometry relative="1" as="geometry">
            <mxPoint x="601" y="280" as="sourcePoint"/>
          </mxGeometry>
        </mxCell>
        <mxCell id="4Rp5gVCnoUCPFiIpjyle-26" value="to managed &lt;br&gt;switches or Fabric controller" style="ellipse;whiteSpace=wrap;html=1;align=center;container=1;recursiveResize=0;treeFolding=1;treeMoving=1;strokeColor=#CC0000;" parent="1" vertex="1">
          <mxGeometry x="316" y="690" width="221" height="100" as="geometry"/>
        </mxCell>
        <mxCell id="4Rp5gVCnoUCPFiIpjyle-28" value="Inter-container and intra-container set/get/notify via host OS" style="ellipse;whiteSpace=wrap;html=1;align=center;container=1;recursiveResize=0;treeFolding=1;treeMoving=1;strokeColor=#CC0000;" parent="1" vertex="1">
          <mxGeometry x="70" y="355" width="130" height="120" as="geometry"/>
        </mxCell>
        <mxCell id="4Rp5gVCnoUCPFiIpjyle-32" value="config manager" style="ellipse;whiteSpace=wrap;html=1;aspect=fixed;" parent="1" vertex="1">
          <mxGeometry x="376" y="315" width="90" height="90" as="geometry"/>
        </mxCell>
        <mxCell id="4Rp5gVCnoUCPFiIpjyle-33" value="" style="endArrow=classic;startArrow=classic;html=1;strokeColor=#CC0000;entryX=0;entryY=0.5;entryDx=0;entryDy=0;exitX=1;exitY=0.5;exitDx=0;exitDy=0;" parent="1" source="4Rp5gVCnoUCPFiIpjyle-8" target="4Rp5gVCnoUCPFiIpjyle-7" edge="1">
          <mxGeometry width="50" height="50" relative="1" as="geometry">
            <mxPoint x="70" y="860" as="sourcePoint"/>
            <mxPoint x="120" y="810" as="targetPoint"/>
          </mxGeometry>
        </mxCell>
        <mxCell id="4Rp5gVCnoUCPFiIpjyle-34" value="" style="endArrow=classic;startArrow=classic;html=1;strokeColor=#CC0000;entryX=1;entryY=1;entryDx=0;entryDy=0;exitX=0.261;exitY=0.069;exitDx=0;exitDy=0;exitPerimeter=0;" parent="1" source="4Rp5gVCnoUCPFiIpjyle-6" target="4Rp5gVCnoUCPFiIpjyle-8" edge="1">
          <mxGeometry width="50" height="50" relative="1" as="geometry">
            <mxPoint x="70" y="860" as="sourcePoint"/>
            <mxPoint x="120" y="810" as="targetPoint"/>
          </mxGeometry>
        </mxCell>
        <mxCell id="4Rp5gVCnoUCPFiIpjyle-35" value="" style="endArrow=classic;startArrow=classic;html=1;strokeColor=#CC0000;" parent="1" source="4Rp5gVCnoUCPFiIpjyle-32" edge="1">
          <mxGeometry width="50" height="50" relative="1" as="geometry">
            <mxPoint x="380" y="440" as="sourcePoint"/>
            <mxPoint x="460" y="430" as="targetPoint"/>
          </mxGeometry>
        </mxCell>
        <mxCell id="4Rp5gVCnoUCPFiIpjyle-36" value="" style="endArrow=classic;startArrow=classic;html=1;strokeColor=#CC0000;entryX=0.5;entryY=0;entryDx=0;entryDy=0;exitX=0.5;exitY=1;exitDx=0;exitDy=0;" parent="1" source="4Rp5gVCnoUCPFiIpjyle-32" target="4Rp5gVCnoUCPFiIpjyle-6" edge="1">
          <mxGeometry width="50" height="50" relative="1" as="geometry">
            <mxPoint x="452.90159711970114" y="409.31055893279654" as="sourcePoint"/>
            <mxPoint x="470" y="440" as="targetPoint"/>
          </mxGeometry>
        </mxCell>
        <mxCell id="4Rp5gVCnoUCPFiIpjyle-37" value="" style="endArrow=classic;startArrow=classic;html=1;strokeColor=#CC0000;entryX=0.985;entryY=0.292;entryDx=0;entryDy=0;entryPerimeter=0;" parent="1" target="4Rp5gVCnoUCPFiIpjyle-8" edge="1">
          <mxGeometry width="50" height="50" relative="1" as="geometry">
            <mxPoint x="400" y="400" as="sourcePoint"/>
            <mxPoint x="435.5" y="510" as="targetPoint"/>
          </mxGeometry>
        </mxCell>
      </root>
    </mxGraphModel>
  </diagram>
</mxfile>
